<svg width="24" height="24" fill="none" xmlns="http://www.w3.org/2000/svg">
  <path fill-rule="evenodd" clip-rule="evenodd" d="M3.25 5.813c0-.183.087-.438.423-.758.34-.325.888-.665 1.651-.972 1.523-.615 3.706-1.02 6.176-1.02s4.653.405 6.176 1.02c.763.307 1.31.647 1.651.972.336.32.423.575.423.758 0 .182-.087.437-.423.757-.34.325-.888.665-1.65.972-1.524.615-3.707 1.02-6.177 1.02-2.47 0-4.653-.405-6.176-1.02-.763-.307-1.31-.647-1.651-.972-.336-.32-.423-.575-.423-.758zm-2.25 0c0-.862.437-1.602 1.05-2.187.609-.58 1.434-1.055 2.368-1.431C6.288 1.44 8.793 1 11.5 1s5.212.44 7.082 1.195c.934.376 1.76.851 2.367 1.431C21.563 4.211 22 4.951 22 5.813v12.375c0 .86-.437 1.601-1.05 2.186-.608.58-1.434 1.055-2.368 1.431C16.712 22.56 14.207 23 11.5 23s-5.212-.44-7.082-1.195c-.934-.376-1.76-.851-2.367-1.431C1.437 19.789 1 19.049 1 18.188V5.813zM3.25 12V8.871c.362.206.754.392 1.168.56 1.87.754 4.375 1.194 7.082 1.194s5.212-.44 7.082-1.195a9.679 9.679 0 001.168-.559V12c0 .183-.087.437-.423.757-.34.325-.888.665-1.65.973-1.524.614-3.707 1.02-6.177 1.02-2.47 0-4.653-.406-6.176-1.02-.763-.308-1.31-.648-1.651-.973-.336-.32-.423-.574-.423-.757zm0 3.059v3.129c0 .182.087.437.423.757.34.325.888.665 1.651.972 1.523.615 3.706 1.02 6.176 1.02s4.653-.405 6.176-1.02c.763-.308 1.31-.647 1.651-.972.336-.32.423-.575.423-.758V15.06a9.679 9.679 0 01-1.168.559c-1.87.754-4.375 1.194-7.082 1.194s-5.212-.44-7.082-1.194a9.681 9.681 0 01-1.168-.56z" fill="#24292E"/>
</svg>
