<svg width="24" height="24" fill="none" xmlns="http://www.w3.org/2000/svg">
  <path d="M3 1h18v21H3V1z" fill="#fff"/>
  <path d="M7.5 5c0 .276-.252.5-.563.5-.31 0-.562-.224-.562-.5s.252-.5.563-.5c.31 0 .562.224.562.5zm0 6.5c0 .276-.252.5-.563.5-.31 0-.562-.224-.562-.5s.252-.5.563-.5c.31 0 .562.224.562.5zm0 6.5c0 .276-.252.5-.563.5-.31 0-.562-.224-.562-.5s.252-.5.563-.5c.31 0 .562.224.562.5z" fill="#fff"/>
  <path d="M21 15H3m18-7H3m0-7h18v21H3V1zm4.5 4c0 .276-.252.5-.563.5-.31 0-.562-.224-.562-.5s.252-.5.563-.5c.31 0 .562.224.562.5zm0 6.5c0 .276-.252.5-.563.5-.31 0-.562-.224-.562-.5s.252-.5.563-.5c.31 0 .562.224.562.5zm0 6.5c0 .276-.252.5-.563.5-.31 0-.562-.224-.562-.5s.252-.5.563-.5c.31 0 .562.224.562.5z" stroke="#000"/>
</svg>
