<svg width="24" height="24" fill="none" xmlns="http://www.w3.org/2000/svg">
  <path d="M23.53 13.03a.75.75 0 000-1.06l-4.773-4.773a.75.75 0 00-1.06 1.06l4.242 4.243-4.242 4.243a.75.75 0 001.06 1.06l4.773-4.773zM16 1.25H3.556v1.5H16v-1.5zM1.25 4.333v16.334h1.5V4.333h-1.5zM3.556 23.75H16v-1.5H3.556v1.5zm12.444 0c.758 0 1.353-.461 1.724-1.017.374-.562.582-1.295.582-2.066h-1.5c0 .517-.142.95-.33 1.234-.192.288-.375.349-.476.349v1.5zM1.25 20.667c0 .771.207 1.504.582 2.066.37.556.965 1.017 1.724 1.017v-1.5c-.101 0-.284-.061-.476-.35-.189-.282-.33-.716-.33-1.233h-1.5zM3.556 1.25c-.759 0-1.354.461-1.724 1.017-.375.562-.582 1.295-.582 2.066h1.5c0-.517.141-.95.33-1.234.192-.288.375-.349.476-.349v-1.5zm14.75 3.083c0-.771-.208-1.504-.582-2.066-.37-.556-.966-1.017-1.724-1.017v1.5c.1 0 .284.061.476.35.189.282.33.716.33 1.233h1.5zm-6.973 8.917H23v-1.5H11.333v1.5z" fill="#000"/>
</svg>
