<svg width="24" height="24" fill="none" xmlns="http://www.w3.org/2000/svg">
  <path d="M23.75 1.996a.75.75 0 00-.754-.746l-6.75.037a.75.75 0 00.008 1.5l6-.033.033 6a.75.75 0 001.5-.008l-.037-6.75zM9.27 1.25H4.076v1.5h5.192v-1.5zM1.25 4.1v16.8h1.5V4.1h-1.5zm2.827 19.65h16.616v-1.5H4.077v1.5zM23.52 20.9v-3.675h-1.5V20.9h1.5zm-2.827 2.85c1.569 0 2.827-1.284 2.827-2.85h-1.5c0 .753-.602 1.35-1.327 1.35v1.5zM1.25 20.9c0 1.566 1.258 2.85 2.827 2.85v-1.5A1.339 1.339 0 012.75 20.9h-1.5zM4.077 1.25c-1.57 0-2.827 1.284-2.827 2.85h1.5c0-.753.602-1.35 1.327-1.35v-1.5zm7.803 13.06L23.533 2.527l-1.066-1.054-11.654 11.782 1.067 1.055z" fill="#000"/>
</svg>
