<svg width="24" height="24" fill="none" xmlns="http://www.w3.org/2000/svg">
  <path d="M22.5 1.984a.5.5 0 00-.516-.483l-4.498.144a.5.5 0 10.032 1l3.998-.129.129 3.998a.5.5 0 101-.032L22.5 1.984zm-21 20.032a.5.5 0 00.516.484l4.498-.145a.5.5 0 10-.032-1l-3.998.13-.128-3.999a.5.5 0 10-1 .032l.145 4.498zm20.484.484a.5.5 0 00.516-.484l.144-4.498a.5.5 0 00-1-.032l-.128 3.998-3.998-.128a.5.5 0 00-.032 1l4.498.144zM2.016 1.5a.5.5 0 00-.516.484l-.144 4.498a.5.5 0 001 .032l.128-3.998 3.998.128a.5.5 0 00.032-1L2.016 1.5zm12.869 8.818l7.48-7.976-.73-.684-7.48 7.976.73.684zm-5.77 3.364l-7.48 7.976.73.684 7.48-7.976-.73-.684zm5.04.684l7.48 7.976.73-.684-7.48-7.976-.73.684zm-4.31-4.732l-7.48-7.976-.73.684 7.48 7.976.73-.684z" fill="#000"/>
</svg>
