<svg width="24" height="24" fill="none" xmlns="http://www.w3.org/2000/svg">
  <path d="M16.299 15.799a.5.5 0 00-.5.5v4.5a.5.5 0 101 0v-4h4a.5.5 0 100-1h-4.5zm-8.098.5a.5.5 0 00-.5-.5h-4.5a.5.5 0 000 1h4v4a.5.5 0 101 0v-4.5zM15.8 7.7a.5.5 0 00.5.5h4.5a.5.5 0 100-1h-4v-4a.5.5 0 10-1 0v4.5zm-8.098.5a.5.5 0 00.5-.5V3.2a.5.5 0 10-1 0v4h-4a.5.5 0 000 1h4.5zm14.653 13.445l-5.702-5.7-.707.706 5.701 5.702.708-.708zm-20 .708l5.7-5.702-.706-.707-5.702 5.701.708.708zM21.646 1.646l-5.7 5.702.706.707 5.702-5.701-.708-.708zm-20 .708l5.702 5.7.707-.706-5.701-5.702-.708.708z" fill="#000"/>
</svg>
