<svg width="24" height="24" fill="none" xmlns="http://www.w3.org/2000/svg">
  <path d="M16.299 15.549a.75.75 0 00-.75.75v6.75a.75.75 0 001.5 0v-6h6a.75.75 0 000-1.5h-6.75zm-7.848.75a.75.75 0 00-.75-.75H.951a.75.75 0 000 1.5h6v6a.75.75 0 001.5 0v-6.75zM15.55 7.7c0 .414.336.75.75.75h6.75a.75.75 0 000-1.5h-6v-6a.75.75 0 00-1.5 0V7.7zm-7.848.75a.75.75 0 00.75-.75V.951a.75.75 0 10-1.5 0v6h-6a.75.75 0 000 1.5h6.75zm14.83 13.019l-5.702-5.701-1.06 1.06 5.7 5.701 1.061-1.06zm-20 1.06l5.7-5.7-1.06-1.061-5.701 5.7 1.06 1.061zM21.47 1.47l-5.701 5.7 1.06 1.062L22.53 2.53l-1.06-1.06zm-20 1.06l5.7 5.702L8.233 7.17 2.53 1.47 1.47 2.53z" fill="#000"/>
</svg>
