<svg width="24" height="24" fill="none" xmlns="http://www.w3.org/2000/svg">
  <path d="M22.75 1.976a.75.75 0 00-.774-.725l-6.747.216a.75.75 0 00.049 1.5l5.996-.193.193 5.997a.75.75 0 001.5-.048l-.217-6.747zM1.25 22.024a.75.75 0 00.774.726l6.747-.217a.75.75 0 00-.048-1.5l-5.997.193-.193-5.997a.75.75 0 00-1.499.049l.217 6.746zm20.726.726a.75.75 0 00.774-.726l.216-6.747a.75.75 0 00-1.499-.048l-.192 5.997-5.997-.192a.75.75 0 00-.049 1.499l6.747.217zM2.024 1.25a.75.75 0 00-.774.726l-.216 6.746a.75.75 0 001.499.049l.193-5.997 5.996.192a.75.75 0 00.049-1.499L2.024 1.25zm13.043 9.24l7.48-7.977-1.094-1.026-7.48 7.976 1.094 1.026zm-6.134 3.02l-7.48 7.977 1.094 1.026 7.48-7.976-1.094-1.026zm5.04 1.027l7.48 7.976 1.094-1.026-7.48-7.976-1.094 1.026zm-3.946-5.074l-7.48-7.976-1.094 1.026 7.48 7.976 1.094-1.026z" fill="#000"/>
</svg>
