<svg width="24" height="24" fill="none" xmlns="http://www.w3.org/2000/svg">
  <path fill-rule="evenodd" clip-rule="evenodd" d="M3.25 1C2.56 1 2 1.528 2 2.179c0 .65.56 1.178 1.25 1.178H4.5v1.964c0 2.35 1.173 4.562 3.167 5.972l.555.393a.38.38 0 010 .628l-.555.393C5.673 14.117 4.5 16.33 4.5 18.68v1.964H3.25c-.69 0-1.25.527-1.25 1.178C2 22.472 2.56 23 3.25 23h17.5c.69 0 1.25-.528 1.25-1.179 0-.65-.56-1.178-1.25-1.178H19.5v-1.964c0-2.35-1.173-4.562-3.167-5.972l-.555-.393a.38.38 0 010-.628l.555-.393C18.327 9.883 19.5 7.67 19.5 5.32V3.357h1.25c.69 0 1.25-.528 1.25-1.178C22 1.528 21.44 1 20.75 1H3.25zM17 3.357H7v1.964c0 1.608.803 3.122 2.167 4.086l.555.393c1.556 1.1 1.556 3.3 0 4.4l-.555.393C7.803 15.557 7 17.07 7 18.679v1.964h10v-1.964c0-1.608-.803-3.122-2.167-4.086l-.555-.393c-1.556-1.1-1.556-3.3 0-4.4l.555-.393C16.197 8.443 17 6.93 17 5.321V3.357z" fill="#24292E"/>
</svg>
