<svg width="24" height="24" fill="none" xmlns="http://www.w3.org/2000/svg">
  <g clip-path="url(#import-24__clip0)">
    <path d="M9.35 12.553a.75.75 0 000 1.06l4.773 4.774a.75.75 0 001.06-1.061l-4.242-4.243 4.242-4.242a.75.75 0 10-1.06-1.061L9.35 12.553zM21.13 5.5V4.333h-1.5V5.5h1.5zM18.7 1.25H5.68v1.5H18.7v-1.5zM3.25 4.333v16.334h1.5V4.333h-1.5zM5.68 23.75H18.7v-1.5H5.68v1.5zm15.45-3.083v-.584h-1.5v.584h1.5zM18.7 23.75c.766 0 1.392-.433 1.797-.995.405-.564.633-1.304.633-2.088h-1.5c0 .504-.148.93-.35 1.211-.204.282-.419.372-.58.372v1.5zM3.25 20.667c0 .784.228 1.524.633 2.088.405.562 1.03.995 1.797.995v-1.5c-.162 0-.376-.09-.58-.372-.202-.28-.35-.707-.35-1.211h-1.5zM5.68 1.25c-.766 0-1.392.433-1.797.995-.405.564-.633 1.304-.633 2.088h1.5c0-.504.148-.93.35-1.211.204-.282.418-.372.58-.372v-1.5zm15.45 3.083c0-.784-.228-1.524-.633-2.088-.405-.562-1.03-.995-1.797-.995v1.5c.162 0 .376.09.58.372.202.28.35.707.35 1.211h1.5zm3.87 8H9.88v1.5H25v-1.5z" fill="#000"/>
  </g>
  <defs>
    <clipPath id="import-24__clip0">
      <path fill="#fff" d="M0 0h24v24H0z"/>
    </clipPath>
  </defs>
</svg>
