<svg width="24" height="24" fill="none" xmlns="http://www.w3.org/2000/svg">
  <path fill-rule="evenodd" clip-rule="evenodd" d="M11.162 4.413a1.125 1.125 0 001.59 1.59l1.875-1.875a3.001 3.001 0 114.245 4.245l-3.75 3.75a2.999 2.999 0 01-4.245 0 1.125 1.125 0 00-1.59 1.59 5.248 5.248 0 007.425 0l3.75-3.75a5.25 5.25 0 10-7.425-7.425l-1.875 1.875zm-7.034 14.46a3 3 0 010-4.246l3.75-3.75a3 3 0 014.245 0 1.125 1.125 0 001.59-1.59 5.25 5.25 0 00-7.425 0l-3.75 3.75a5.25 5.25 0 007.425 7.425l1.875-1.875a1.125 1.125 0 00-1.59-1.59l-1.875 1.875a3 3 0 01-4.245 0z" fill="#24292E"/>
</svg>
