<svg width="24" height="24" fill="none" xmlns="http://www.w3.org/2000/svg">
  <path d="M21.75 2.007a.75.75 0 00-.743-.757l-6.75-.062a.75.75 0 10-.014 1.5l6 .055-.055 6a.75.75 0 001.5.014l.062-6.75zm-5.97 12.351c0 3.241-2.68 5.892-6.015 5.892v1.5c4.138 0 7.515-3.297 7.515-7.392h-1.5zM9.765 20.25c-3.335 0-6.015-2.65-6.015-5.892h-1.5c0 4.095 3.378 7.392 7.515 7.392v-1.5zM3.75 14.358c0-3.24 2.68-5.892 6.015-5.892v-1.5c-4.137 0-7.515 3.297-7.515 7.392h1.5zm6.015-5.892c3.335 0 6.015 2.651 6.015 5.892h1.5c0-4.095-3.377-7.392-7.515-7.392v1.5zM14.35 9.58l7.175-7.045-1.05-1.07-7.176 7.045 1.05 1.07z" fill="#000"/>
</svg>
