<svg width="24" height="24" fill="none" xmlns="http://www.w3.org/2000/svg">
  <path d="M6 4c0-1.105.796-2 1.778-2h8.444C17.204 2 18 2.895 18 4v17c0 1.105-.796 2-1.778 2H7.778C6.796 23 6 22.105 6 21V4z" fill="#fff"/>
  <path d="M12.444 18.5c0 .276-.199.5-.444.5s-.444-.224-.444-.5.199-.5.444-.5.444.224.444.5z" fill="#fff"/>
  <path d="M6 4c0-1.105.796-2 1.778-2h8.444C17.204 2 18 2.895 18 4v17c0 1.105-.796 2-1.778 2H7.778C6.796 23 6 22.105 6 21V4z" stroke="#000" stroke-width="1.5"/>
  <path d="M12.444 18.5c0 .276-.199.5-.444.5s-.444-.224-.444-.5.199-.5.444-.5.444.224.444.5z" stroke="#000" stroke-width="1.5"/>
</svg>
