<svg width="24" height="24" fill="none" xmlns="http://www.w3.org/2000/svg">
  <path fill-rule="evenodd" clip-rule="evenodd" d="M14.072 2.322a1.1 1.1 0 011.153-.256C19.175 3.496 22 7.28 22 11.727 22 17.401 17.4 22 11.727 22c-4.447 0-8.23-2.825-9.661-6.775a1.1 1.1 0 011.41-1.41 8.071 8.071 0 0010.82-7.592c0-.966-.17-1.891-.48-2.748a1.1 1.1 0 01.256-1.153zm2.372 2.854c.035.345.053.694.053 1.048 0 5.674-4.6 10.273-10.273 10.273-.354 0-.703-.018-1.048-.053A8.071 8.071 0 1016.444 5.176z" fill="#24292E"/>
</svg>
