<svg width="24" height="24" fill="none" xmlns="http://www.w3.org/2000/svg">
  <path d="M20.66 19.778a11.693 11.693 0 01-5.897 3.01 12.02 12.02 0 01-6.654-.625 11.42 11.42 0 01-5.168-4.052A10.653 10.653 0 011 12c0-2.176.675-4.302 1.94-6.111a11.419 11.419 0 015.17-4.052 12.019 12.019 0 016.653-.626 11.693 11.693 0 015.896 3.01L19.438 5.39a9.94 9.94 0 00-5.012-2.56 10.216 10.216 0 00-5.656.533 9.706 9.706 0 00-4.393 3.443A9.055 9.055 0 002.727 12a9.06 9.06 0 001.65 5.195 9.706 9.706 0 004.393 3.443c1.789.708 3.757.893 5.656.532a9.938 9.938 0 005.012-2.559l1.221 1.167z" fill="#000"/>
  <path d="M22 2.941l-4.064 3.882H22V2.941z" fill="#000"/>
</svg>
