<svg width="24" height="24" fill="none" xmlns="http://www.w3.org/2000/svg">
  <path fill-rule="evenodd" clip-rule="evenodd" d="M12 15.125a3.125 3.125 0 100-6.25 3.125 3.125 0 000 6.25zM12 17a5 5 0 100-10 5 5 0 000 10zm0-15c.518 0 .938.42.938.938v1.874a.937.937 0 11-1.876 0V2.938c0-.517.42-.937.938-.937zm0 16.25c.518 0 .938.42.938.938v1.875a.937.937 0 11-1.876 0v-1.875c0-.518.42-.938.938-.938zM4.93 4.93a.938.938 0 011.325 0L7.58 6.254A.937.937 0 116.255 7.58L4.929 6.255a.938.938 0 010-1.326zm11.49 11.49a.937.937 0 011.325 0l1.326 1.325a.937.937 0 11-1.326 1.326l-1.325-1.326a.937.937 0 010-1.325zM22 12c0 .518-.42.938-.938.938h-1.875a.937.937 0 110-1.876h1.875c.518 0 .938.42.938.938zM5.75 12c0 .518-.42.938-.938.938H2.938a.937.937 0 110-1.876h1.876c.517 0 .937.42.937.938zm13.32-7.07a.938.938 0 010 1.325L17.746 7.58a.938.938 0 01-1.326-1.326l1.326-1.326a.937.937 0 011.326 0zM7.58 16.42a.937.937 0 010 1.325l-1.325 1.326a.937.937 0 11-1.326-1.326l1.326-1.325a.938.938 0 011.325 0z" fill="#24292E"/>
</svg>
