<svg width="18" height="18" fill="none" xmlns="http://www.w3.org/2000/svg">
  <path d="M12.44 11.94a.5.5 0 00-.5.5v4.5a.5.5 0 101 0v-4h4a.5.5 0 000-1h-4.5zm-6.38.5a.5.5 0 00-.5-.5h-4.5a.5.5 0 100 1h4v4a.5.5 0 001 0v-4.5zm5.88-6.88a.5.5 0 00.5.5h4.5a.5.5 0 000-1h-4v-4a.5.5 0 00-1 0v4.5zm-6.38.5a.5.5 0 00.5-.5v-4.5a.5.5 0 00-1 0v4h-4a.5.5 0 000 1h4.5zm11.794 10.586l-4.561-4.56-.707.707 4.56 4.56.708-.707zm-16 .708l4.56-4.561-.707-.707-4.56 4.56.707.708zM16.646.646l-4.56 4.561.707.707 4.56-4.56-.707-.708zm-16 .708l4.561 4.56.707-.707-4.56-4.56-.708.707z" fill="#000"/>
</svg>
