<svg width="16" height="16" fill="none" xmlns="http://www.w3.org/2000/svg">
  <path d="M14.75 1.997a.75.75 0 00-.753-.747l-6.75.026a.75.75 0 10.006 1.5l6-.023.022 6a.75.75 0 001.5-.006l-.025-6.75zm-4.48 8.459c0 2.1-1.688 3.794-3.76 3.794v1.5c2.91 0 5.26-2.376 5.26-5.294h-1.5zM6.51 14.25c-2.071 0-3.76-1.694-3.76-3.794h-1.5c0 2.918 2.35 5.294 5.26 5.294v-1.5zm-3.76-3.794c0-2.101 1.689-3.795 3.76-3.795v-1.5c-2.91 0-5.26 2.376-5.26 5.295h1.5zM6.51 6.66c2.072 0 3.76 1.694 3.76 3.795h1.5c0-2.92-2.35-5.295-5.26-5.295v1.5zm3.239.687l4.783-4.82-1.064-1.056-4.784 4.82 1.065 1.056z" fill="#000"/>
</svg>
