<svg width="16" height="16" fill="none" xmlns="http://www.w3.org/2000/svg">
  <path d="M4 2.333C4 1.597 4.53 1 5.185 1h5.63C11.469 1 12 1.597 12 2.333v11.334c0 .736-.53 1.333-1.185 1.333h-5.63C4.531 15 4 14.403 4 13.667V2.333z" fill="#fff"/>
  <path d="M8.296 12c0 .184-.132.333-.296.333-.164 0-.296-.149-.296-.333 0-.184.132-.333.296-.333.164 0 .296.149.296.333z" fill="#fff"/>
  <path d="M4 2.333C4 1.597 4.53 1 5.185 1h5.63C11.469 1 12 1.597 12 2.333v11.334c0 .736-.53 1.333-1.185 1.333h-5.63C4.531 15 4 14.403 4 13.667V2.333z" stroke="#000" stroke-width="1.5"/>
  <path d="M8.296 12c0 .184-.132.333-.296.333-.164 0-.296-.149-.296-.333 0-.184.132-.333.296-.333.164 0 .296.149.296.333z" stroke="#000" stroke-width="1.5"/>
</svg>
