<svg width="16" height="16" fill="none" xmlns="http://www.w3.org/2000/svg">
  <path d="M14.106 13.303a7.735 7.735 0 01-3.93 2.053 7.85 7.85 0 01-4.437-.427 7.642 7.642 0 01-3.445-2.762A7.377 7.377 0 011 8c0-1.483.45-2.933 1.294-4.167a7.642 7.642 0 013.445-2.762 7.846 7.846 0 014.436-.427 7.735 7.735 0 013.931 2.053l-.814.795A6.575 6.575 0 009.95 1.748a6.67 6.67 0 00-3.77.362 6.495 6.495 0 00-2.93 2.348A6.27 6.27 0 002.151 8a6.27 6.27 0 001.1 3.542 6.496 6.496 0 002.93 2.348 6.67 6.67 0 003.77.362 6.575 6.575 0 003.34-1.744l.815.795z" fill="#000"/>
  <path d="M15 1.823l-2.71 2.648H15V1.824z" fill="#000"/>
</svg>
