<svg xmlns="http://www.w3.org/2000/svg" width="16" height="16" fill="none" viewBox="0 0 16 16">
  <path fill="#fff" d="M2 1h12v14.5H2V1z"/>
  <path fill="#fff" d="M5 3.762c0 .19-.168.345-.375.345s-.375-.154-.375-.345c0-.19.168-.345.375-.345S5 3.57 5 3.762zM5 8.25c0 .19-.168.345-.375.345s-.375-.154-.375-.345c0-.19.168-.345.375-.345S5 8.059 5 8.25zm0 4.488c0 .19-.168.345-.375.345s-.375-.154-.375-.345c0-.19.168-.345.375-.345s.375.154.375.345z"/>
  <path stroke="#000" d="M14 10.667H2m12-4.834H2M2 1h12v14.5H2V1zm3 2.762c0 .19-.168.345-.375.345s-.375-.154-.375-.345c0-.19.168-.345.375-.345S5 3.57 5 3.762zM5 8.25c0 .19-.168.345-.375.345s-.375-.154-.375-.345c0-.19.168-.345.375-.345S5 8.059 5 8.25zm0 4.488c0 .19-.168.345-.375.345s-.375-.154-.375-.345c0-.19.168-.345.375-.345s.375.154.375.345z"/>
</svg>
