<svg xmlns="http://www.w3.org/2000/svg" width="16" height="16" fill="none" viewBox="0 0 16 16">
  <path fill="#000" d="M15.354 8.354a.5.5 0 000-.708l-3.182-3.182a.5.5 0 10-.708.708L14.293 8l-2.829 2.828a.5.5 0 10.708.708l3.182-3.182zM10.334.5H2.036v1h8.296v-1zM.5 2.556v10.888h1V2.556h-1zM2.037 15.5h8.296v-1H2.037v1zm8.296 0c.506 0 .902-.307 1.15-.678.25-.375.387-.863.387-1.378h-1c0 .345-.094.634-.22.823-.127.192-.25.233-.317.233v1zM.5 13.444c0 .515.138 1.003.388 1.378.247.37.643.678 1.149.678v-1c-.067 0-.19-.04-.317-.233-.126-.189-.22-.478-.22-.823h-1zM2.037.5c-.506 0-.902.307-1.15.678C.639 1.553.5 2.041.5 2.556h1c0-.345.094-.634.22-.823.128-.192.25-.233.317-.233v-1zm9.833 2.056c0-.515-.138-1.003-.387-1.378-.248-.37-.644-.678-1.15-.678v1c.067 0 .19.04.318.233.125.189.22.478.22.823h1zM7.222 8.5H15v-1H7.222v1z"/>
</svg>
