<svg xmlns="http://www.w3.org/2000/svg" width="16" height="16" fill="none" viewBox="0 0 16 16">
  <path fill="#000" d="M15.75.996a.75.75 0 00-.754-.746l-6.75.037a.75.75 0 00.008 1.5l6-.033.033 6a.75.75 0 001.5-.008L15.75.996zM5.846.25H2.385v1.5h3.461V.25zM.25 2.4v11.2h1.5V2.4H.25zm2.135 13.35h11.077v-1.5H2.385v1.5zm13.212-2.15v-2.45h-1.5v2.45h1.5zm-2.135 2.15c1.187 0 2.135-.97 2.135-2.15h-1.5c0 .367-.292.65-.635.65v1.5zM.25 13.6c0 1.18.948 2.15 2.135 2.15v-1.5a.642.642 0 01-.635-.65H.25zM2.385.25C1.198.25.25 1.22.25 2.4h1.5c0-.367.292-.65.635-.65V.25zm5.38 9.133l7.768-7.856L14.467.473l-7.77 7.855 1.067 1.055z"/>
</svg>
