<svg xmlns="http://www.w3.org/2000/svg" width="18" height="18" fill="none" viewBox="0 0 18 18">
  <path fill="#000" d="M17.5.984a.5.5 0 00-.516-.483l-4.498.144a.5.5 0 10.032 1l3.998-.129.129 3.998a.5.5 0 101-.032L17.5.984zM.5 17.016a.5.5 0 00.516.484l4.498-.145a.5.5 0 10-.032-1l-3.998.13-.128-3.999a.5.5 0 10-1 .032l.145 4.498zm16.484.484a.5.5 0 00.516-.484l.144-4.498a.5.5 0 00-1-.032l-.128 3.998-3.998-.128a.5.5 0 00-.032 1l4.498.144zM1.016.5A.5.5 0 00.5.984L.356 5.482a.5.5 0 001 .032l.128-3.998 3.998.128a.5.5 0 00.032-1L1.016.5zm10.365 7.223l5.984-6.38-.73-.685-5.984 6.381.73.684zm-4.762 2.554L.636 16.658l.729.684 5.984-6.38-.73-.685zm4.032.684l5.984 6.381.73-.684-5.984-6.38-.73.683zM7.35 7.04L1.365.658l-.73.684 5.984 6.38.73-.683z"/>
</svg>
