<svg width="16" height="16" fill="none" xmlns="http://www.w3.org/2000/svg">
  <path fill-rule="evenodd" clip-rule="evenodd" d="M1.875 0A.866.866 0 001 .857c0 .474.392.857.875.857h.875v1.429c0 1.709.821 3.317 2.217 4.343l.389.285a.282.282 0 010 .458l-.39.285a5.392 5.392 0 00-2.216 4.343v1.429h-.875a.866.866 0 00-.875.857c0 .473.392.857.875.857h12.25a.866.866 0 00.875-.857.866.866 0 00-.875-.857h-.875v-1.429a5.392 5.392 0 00-2.217-4.343l-.388-.285a.282.282 0 010-.458l.388-.285a5.392 5.392 0 002.217-4.343V1.714h.875A.866.866 0 0015 .857.866.866 0 0014.125 0H1.875zM11.5 1.714h-7v1.429c0 1.169.562 2.27 1.517 2.971l.389.286c1.088.8 1.088 2.4 0 3.2l-.39.286A3.69 3.69 0 004.5 12.857v1.429h7v-1.429a3.69 3.69 0 00-1.517-2.971L9.594 9.6a1.976 1.976 0 010-3.2l.39-.286A3.69 3.69 0 0011.5 3.143V1.714z" fill="#24292E"/>
</svg>
