<svg width="16" height="16" fill="none" xmlns="http://www.w3.org/2000/svg">
  <path d="M4.566 8.035a.5.5 0 000 .707l3.182 3.182a.5.5 0 10.708-.707L5.627 8.39l2.829-2.83a.5.5 0 10-.708-.707L4.566 8.035zm7.854-4.702v-.777h-1v.777h1zM10.8.5H2.12v1h8.68v-1zM.5 2.556v10.888h1V2.556h-1zM2.12 15.5h8.68v-1H2.12v1zm10.3-2.056v-.388h-1v.388h1zM10.8 15.5c.51 0 .928-.289 1.198-.664.27-.375.422-.869.422-1.392h-1c0 .337-.099.62-.234.808-.135.188-.278.248-.386.248v1zM.5 13.444c0 .523.152 1.017.422 1.392s.687.664 1.198.664v-1c-.108 0-.25-.06-.386-.248a1.399 1.399 0 01-.234-.808h-1zM2.12.5c-.51 0-.928.289-1.198.663C.652 1.54.5 2.033.5 2.556h1c0-.337.099-.62.234-.808.135-.188.278-.248.386-.248v-1zm10.3 2.056c0-.523-.152-1.017-.422-1.393C11.728.79 11.31.5 10.8.5v1c.108 0 .25.06.386.248.135.187.234.471.234.808h1zM15 7.889H4.92v1H15v-1z" fill="#000"/>
</svg>
